<?xml version="1.0" standalone="no"?><!DOCTYPE svg PUBLIC "-//W3C//DTD SVG 1.1//EN" "http://www.w3.org/Graphics/SVG/1.1/DTD/svg11.dtd"><svg t="1581041347695" class="icon" viewBox="0 0 1024 1024" version="1.1" xmlns="http://www.w3.org/2000/svg" p-id="3821" xmlns:xlink="http://www.w3.org/1999/xlink" width="200" height="200"><defs><style type="text/css"></style></defs><path d="M519.1014667200792 147.4580227160494c101.78769440110615 0 184.63814378382222 82.85044938271605 184.63814507836048 184.63814378382222 0 14.202934734696294 9.468623156464194 23.671556596622217 23.671556596622217 23.67155789116049s23.671556596622217-9.468623156464194 23.671556596622217-23.67155789116049c0-127.82640743411358-104.15485083749135-231.9812582716049-231.9812582716049-231.9812582716049s-231.9812582716049 104.15485083749135-231.9812582716049 231.9812582716049v127.82640872865184h-71.01467108440494c-26.038713033007408 0-47.34311448778271 21.304401454775306-47.343113193244434 47.343113193244434V938.0880252118914c0 26.038713033007408 21.304401454775306 47.34311448778271 47.343113193244434 47.34311448778271H819.7302409342419c26.038713033007408 0 47.34311448778271-21.304401454775306 47.343113193244434-47.34311448778271V507.2656884217679c0-26.038713033007408-21.304401454775306-47.34311448778271-47.343113193244434-47.343113193244434H334.46332293625676v-127.82640872865184c0-101.78769440110615 82.85044938271605-184.63814378382222 184.63814378382222-184.63814378382222zM819.7302409342419 507.2656884217679V938.0880252118914H216.1055373640691V507.2656884217679H819.7302409342419z" fill="" p-id="3822"></path></svg>