<?xml version="1.0" standalone="no"?><!DOCTYPE svg PUBLIC "-//W3C//DTD SVG 1.1//EN" "http://www.w3.org/Graphics/SVG/1.1/DTD/svg11.dtd"><svg t="1581414262679" class="icon" viewBox="0 0 1024 1024" version="1.1" xmlns="http://www.w3.org/2000/svg" p-id="4290" xmlns:xlink="http://www.w3.org/1999/xlink" width="200" height="200"><defs><style type="text/css"></style></defs><path d="M780.54 207.67H235.05c-51.45 0-93.31 41.86-93.31 93.31v430.65c0 51.45 41.86 93.31 93.31 93.31h545.49c51.45 0 93.31-41.86 93.31-93.31V300.98c0-51.45-41.86-93.31-93.31-93.31zM184.8 419.41h645.98v53.83H626.04c-11.96 0-23.54 4.29-32.63 12.08l-73.83 63.27c-2.67 2.3-6.55 2.29-9.22 0.01l-73.83-63.29a50.19 50.19 0 0 0-32.63-12.07H184.8v-53.83z m0-118.43c0-27.7 22.54-50.24 50.24-50.24h545.49c27.7 0 50.24 22.54 50.24 50.24v75.36H184.8v-75.36z m595.74 480.89H235.05c-27.7 0-50.24-22.54-50.24-50.24V516.31h219.1c1.69 0 3.32 0.61 4.61 1.7l73.83 63.29c9.45 8.1 21.04 12.15 32.63 12.15s23.18-4.05 32.63-12.16l73.83-63.27a7.124 7.124 0 0 1 4.61-1.71h204.74v215.33c-0.01 27.69-22.55 50.23-50.25 50.23z" fill="#108EE9" p-id="4291"></path></svg>