<?xml version="1.0" standalone="no"?><!DOCTYPE svg PUBLIC "-//W3C//DTD SVG 1.1//EN" "http://www.w3.org/Graphics/SVG/1.1/DTD/svg11.dtd"><svg t="1581411607081" class="icon" viewBox="0 0 1297 1024" version="1.1" xmlns="http://www.w3.org/2000/svg" p-id="8987" xmlns:xlink="http://www.w3.org/1999/xlink" width="253.3203125" height="200"><defs><style type="text/css"></style></defs><path d="M648.532036 418.200764a162.918074 162.918074 0 1 0 164.897804 162.918074A164.078605 164.078605 0 0 0 648.532036 418.200764zM1143.908112 202.068929a118.613096 118.613096 0 0 1-115.711768-92.364615A140.867985 140.867985 0 0 0 890.878218 0H406.185854a140.867985 140.867985 0 0 0-137.318125 109.704314 118.613096 118.613096 0 0 1-115.711769 92.364615A152.370895 152.370895 0 0 0 0 353.381693v519.337628A152.370895 152.370895 0 0 0 153.15596 1023.997952h990.752152A152.370895 152.370895 0 0 0 1297.064073 872.719321V353.381693a152.370895 152.370895 0 0 0-153.155961-151.312764zM648.532036 848.894302a267.775464 267.775464 0 1 1 271.018125-267.775464A269.652794 269.652794 0 0 1 648.532036 848.894302z m0 0" p-id="8988"></path></svg>