<?xml version="1.0" standalone="no"?><!DOCTYPE svg PUBLIC "-//W3C//DTD SVG 1.1//EN" "http://www.w3.org/Graphics/SVG/1.1/DTD/svg11.dtd"><svg t="1581414196506" class="icon" viewBox="0 0 1024 1024" version="1.1" xmlns="http://www.w3.org/2000/svg" p-id="3703" xmlns:xlink="http://www.w3.org/1999/xlink" width="200" height="200"><defs><style type="text/css"></style></defs><path d="M518.9632 87.87968c232.07936 4.3008 409.86624 179.5072 410.5216 406.58944 0.69632 240.18944-178.688 416.91136-411.52512 415.47776-236.21632-1.4336-407.08096-178.74944-408.30976-409.51808C108.4416 269.1072 286.1056 93.04064 518.9632 87.87968z" fill="#C5F2EB" p-id="3704"></path><path d="M522.3424 686.36672c-63.44704 0-126.91456-0.9216-190.34112 0.34816-38.7072 0.77824-54.04672-15.4624-53.39136-54.31296 1.536-92.11904 1.3312-184.29952 0.1024-276.43904-0.49152-37.4784 16.30208-51.01568 52.06016-50.81088 128.38912 0.73728 256.79872 0.90112 385.20832-0.08192 38.7072-0.28672 54.02624 15.44192 53.37088 54.29248-1.536 92.11904-1.24928 184.29952-0.14336 276.43904 0.45056 37.1712-15.93344 51.5072-52.0192 50.87232-64.9216-1.10592-129.88416-0.3072-194.84672-0.3072z" fill="#5CDCC8" p-id="3705"></path><path d="M337.75616 641.26976c32.99328-35.75808 56.79104-62.27968 81.408-88.00256 20.72576-21.64736 38.1952-5.46816 55.76704 6.26688 53.12512 35.49184 53.32992 35.65568 93.14304-11.61216 29.184-34.65216 57.56928-69.95968 86.75328-104.59136 4.58752-5.4272 11.63264-12.57472 17.36704-12.43136 11.07968 0.28672 11.63264 12.26752 12.88192 20.52096 7.90528 52.18304 14.66368 104.52992 22.81472 156.672 3.7888 24.24832-6.32832 33.32096-29.45024 33.28-108.68736-0.22528-217.3952-0.1024-340.6848-0.1024z" fill="#FDFEFE" p-id="3706"></path><path d="M479.72352 416.54272c-1.6384 25.96864-16.67072 40.77568-40.12032 39.50592-22.07744-1.18784-41.22624-15.23712-39.99744-40.07936 1.1264-22.81472 15.03232-39.34208 40.69376-38.58432 24.96512 0.75776 37.31456 15.60576 39.424 39.15776z" fill="#F7FDFC" p-id="3707"></path></svg>